<svg width="20" height="20" viewBox="0 0 20 20" fill="none" xmlns="http://www.w3.org/2000/svg">
<path d="M9.56252 12.0625L6.54169 9.04171C6.50002 9.00004 6.46877 8.9549 6.44794 8.90629C6.4271 8.85768 6.41669 8.8056 6.41669 8.75004C6.41669 8.63893 6.45488 8.54171 6.53127 8.45837C6.60766 8.37504 6.70835 8.33337 6.83335 8.33337H13.1667C13.2917 8.33337 13.3924 8.37504 13.4688 8.45837C13.5452 8.54171 13.5834 8.63893 13.5834 8.75004C13.5834 8.77782 13.5417 8.87504 13.4584 9.04171L10.4375 12.0625C10.3681 12.132 10.2986 12.1806 10.2292 12.2084C10.1597 12.2362 10.0834 12.25 10 12.25C9.91669 12.25 9.8403 12.2362 9.77085 12.2084C9.70141 12.1806 9.63196 12.132 9.56252 12.0625Z" fill="#3C4043"/>
</svg>
