<svg width="20" height="20" viewBox="0 0 20 20" fill="none" xmlns="http://www.w3.org/2000/svg">
<path d="M8.62484 17.3334C8.18039 17.3334 7.7915 17.1667 7.45817 16.8334C7.12484 16.5001 6.95817 16.1112 6.95817 15.6667V12.8959C6.95817 12.4433 7.12484 12.0558 7.45817 11.7336C7.7915 11.4113 8.18039 11.2501 8.62484 11.2501H11.3957C11.8483 11.2501 12.2357 11.4113 12.558 11.7336C12.8803 12.0558 13.0415 12.4433 13.0415 12.8959V15.6667C13.0415 16.1112 12.8803 16.5001 12.558 16.8334C12.2357 17.1667 11.8483 17.3334 11.3957 17.3334H8.62484ZM9.1665 15.1251H10.8332V13.4584H9.1665V15.1251ZM2.37484 10.5626C2.12484 10.757 1.85053 10.8334 1.55192 10.7917C1.25331 10.7501 1.00678 10.6042 0.812337 10.3542C0.631782 10.1181 0.562337 9.85078 0.604004 9.55216C0.645671 9.25355 0.784559 9.00703 1.02067 8.81258L8.64567 2.89591C8.84011 2.74314 9.05386 2.62508 9.28692 2.54175C9.51984 2.45841 9.75748 2.41675 9.99984 2.41675C10.2422 2.41675 10.4798 2.45841 10.7128 2.54175C10.9458 2.62508 11.1596 2.74314 11.354 2.89591L13.229 4.35425V4.18758C13.229 3.76508 13.3768 3.40598 13.6725 3.11029C13.9682 2.81459 14.3273 2.66675 14.7498 2.66675C15.1723 2.66675 15.5314 2.81459 15.8271 3.11029C16.1228 3.40598 16.2707 3.76508 16.2707 4.18758V6.70841L18.979 8.81258C19.2151 9.00703 19.354 9.25355 19.3957 9.55216C19.4373 9.85078 19.3679 10.1181 19.1873 10.3542C18.9929 10.6042 18.7429 10.7501 18.4373 10.7917C18.1318 10.8334 17.854 10.757 17.604 10.5626L9.99984 4.64591L2.37484 10.5626Z" fill="#3D2817"/>
</svg>
