<svg width="16" height="16" viewBox="0 0 16 16" fill="none" xmlns="http://www.w3.org/2000/svg">
<path d="M10.1231 1.32543C10.5503 0.891944 11.2429 0.891752 11.67 1.32543C12.097 1.75919 12.097 2.46299 11.67 2.89672L6.64658 7.99633L11.6778 13.1047C12.1045 13.5384 12.1045 14.2414 11.6778 14.675C11.2507 15.1088 10.5581 15.1087 10.131 14.675L4.42001 8.87719C4.3857 8.84984 4.35203 8.82043 4.3204 8.78832C4.10691 8.57146 4.0001 8.28736 4.00009 8.00317C3.99644 7.71413 4.10225 7.4239 4.31943 7.20336C4.35442 7.16784 4.39152 7.13541 4.42978 7.10571L10.1231 1.32543Z" fill="#3D2817"/>
</svg>
