<svg width="24" height="25" viewBox="0 0 24 25" fill="none" xmlns="http://www.w3.org/2000/svg">
<path d="M13.5461 12.5L9.47286 8.427C9.33452 8.2885 9.26369 8.11441 9.26036 7.90475C9.25719 7.69525 9.32802 7.518 9.47286 7.373C9.61786 7.22816 9.79352 7.15575 9.99986 7.15575C10.2062 7.15575 10.3819 7.22816 10.5269 7.373L15.0211 11.8672C15.1146 11.9609 15.1806 12.0597 15.2191 12.1635C15.2576 12.2673 15.2769 12.3795 15.2769 12.5C15.2769 12.6205 15.2576 12.7327 15.2191 12.8365C15.1806 12.9403 15.1146 13.0391 15.0211 13.1327L10.5269 17.627C10.3884 17.7653 10.2143 17.8362 10.0046 17.8395C9.79511 17.8427 9.61786 17.7718 9.47286 17.627C9.32802 17.482 9.25561 17.3063 9.25561 17.1C9.25561 16.8937 9.32802 16.718 9.47286 16.573L13.5461 12.5Z" fill="#3C4043"/>
</svg>
