<svg width="24" height="25" viewBox="0 0 24 25" fill="none" xmlns="http://www.w3.org/2000/svg">
<path d="M10.4539 12.5L14.5271 16.573C14.6655 16.7115 14.7363 16.8856 14.7396 17.0953C14.7428 17.3048 14.672 17.482 14.5271 17.627C14.3821 17.7718 14.2065 17.8443 14.0001 17.8443C13.7938 17.8443 13.6181 17.7718 13.4731 17.627L8.97889 13.1328C8.88539 13.0391 8.81939 12.9403 8.78089 12.8365C8.74239 12.7327 8.72314 12.6205 8.72314 12.5C8.72314 12.3795 8.74239 12.2673 8.78089 12.1635C8.81939 12.0597 8.88539 11.9609 8.97889 11.8673L13.4731 7.373C13.6116 7.23467 13.7857 7.16384 13.9954 7.1605C14.2049 7.15734 14.3821 7.22817 14.5271 7.373C14.672 7.518 14.7444 7.69367 14.7444 7.9C14.7444 8.10634 14.672 8.282 14.5271 8.427L10.4539 12.5Z" fill="#3C4043"/>
</svg>
