<svg width="17" height="16" viewBox="0 0 17 16" fill="none" xmlns="http://www.w3.org/2000/svg">
<rect y="2" width="11" height="2" rx="1" fill="#5C4939"/>
<rect y="7" width="8" height="2" rx="1" fill="#5C4939"/>
<rect y="12" width="11" height="2" rx="1" fill="#5C4939"/>
<path d="M9.7296 8.68689C9.33035 8.2659 9.33913 7.6035 9.74939 7.19324L14.2786 2.66404C14.6728 2.26979 15.312 2.26979 15.7063 2.66404C16.0952 3.05298 16.1012 3.68171 15.7197 4.07799L11.2777 8.69265C10.8543 9.1324 10.1496 9.12977 9.7296 8.68689Z" fill="#5C4939"/>
<path d="M10.2588 7.32618C10.6649 7.10875 11.1655 7.18285 11.4913 7.5086L15.7168 11.7341C16.1098 12.1272 16.1098 12.7644 15.7168 13.1575C15.3273 13.547 14.6972 13.551 14.3027 13.1667L10.0226 8.99642C9.5163 8.50306 9.63551 7.65984 10.2588 7.32618Z" fill="#5C4939"/>
</svg>
