<svg width="24" height="25" viewBox="0 0 24 25" fill="none" xmlns="http://www.w3.org/2000/svg">
<path d="M11.9999 19.4231C11.1221 19.4231 10.2952 19.2708 9.5194 18.9663C8.74357 18.6618 8.04607 18.2429 7.4269 17.7096L5.35365 19.7578C5.26432 19.8513 5.15065 19.8981 5.01265 19.8981C4.87465 19.8981 4.7589 19.8513 4.6654 19.7578C4.57174 19.6642 4.5249 19.5483 4.5249 19.4103C4.5249 19.2723 4.57174 19.1587 4.6654 19.0693L6.7134 17.0213C6.18007 16.402 5.76115 15.7003 5.45665 14.9163C5.15215 14.1323 4.9999 13.3013 4.9999 12.4231C4.9999 10.4689 5.67799 8.81376 7.03415 7.4576C8.39049 6.10126 10.0457 5.4231 11.9999 5.4231H17.9614C18.2551 5.4231 18.5016 5.52276 18.7009 5.7221C18.9002 5.9216 18.9999 6.1681 18.9999 6.4616V12.4231C18.9999 14.3773 18.3218 16.0325 16.9657 17.3888C15.6093 18.745 13.9541 19.4231 11.9999 19.4231ZM11.9999 18.4231C13.6666 18.4231 15.0832 17.8398 16.2499 16.6731C17.4166 15.5064 17.9999 14.0898 17.9999 12.4231V6.4231H11.9999C10.3332 6.4231 8.91657 7.00643 7.7499 8.1731C6.58324 9.33976 5.9999 10.7564 5.9999 12.4231C5.9999 13.1629 6.12557 13.8639 6.3769 14.5261C6.62807 15.1883 6.97999 15.7803 7.43265 16.3021L12.6654 11.0693C12.7546 10.9757 12.8682 10.9288 13.0064 10.9288C13.1444 10.9288 13.2622 10.9776 13.3597 11.0751C13.466 11.1814 13.5192 11.2984 13.5192 11.4261C13.5192 11.5536 13.464 11.6725 13.3537 11.7828L8.12115 16.9963C8.64282 17.4488 9.23474 17.7998 9.8969 18.0491C10.5592 18.2984 11.2602 18.4231 11.9999 18.4231Z" fill="#3C4043"/>
</svg>
