<svg width="16" height="16" viewBox="0 0 16 16" fill="none" xmlns="http://www.w3.org/2000/svg">
<path d="M1.3252 5.87686C0.891707 5.44966 0.891515 4.75706 1.3252 4.32998C1.75895 3.90299 2.46275 3.90296 2.89648 4.32998L7.99609 9.35342L13.1045 4.32217C13.5382 3.89551 14.2411 3.8955 14.6748 4.32217C15.1085 4.74929 15.1084 5.44186 14.6748 5.86904L8.87695 11.58C8.8496 11.6143 8.82019 11.648 8.78809 11.6796C8.57123 11.8931 8.28713 11.9999 8.00293 11.9999C7.7139 12.0036 7.42367 11.8977 7.20313 11.6806C7.1676 11.6456 7.13517 11.6085 7.10547 11.5702L1.3252 5.87686Z" fill="#3D2817"/>
</svg>
