<svg width="24" height="25" viewBox="0 0 24 25" fill="none" xmlns="http://www.w3.org/2000/svg">
<path d="M11.2655 20.3077C11.1155 19.8712 10.9238 19.4683 10.6905 19.0992C10.4572 18.7298 10.1822 18.3857 9.86548 18.0667C9.54882 17.7478 9.20715 17.4708 8.84048 17.2354C8.47382 17.0003 8.07382 16.8077 7.64048 16.6577C7.67382 17.141 7.79048 17.591 7.99048 18.0077C8.19048 18.4243 8.45715 18.7993 8.79048 19.1327C9.12382 19.466 9.49882 19.7336 9.91548 19.9354C10.3322 20.1374 10.7822 20.2615 11.2655 20.3077ZM12.7155 20.3077C13.1988 20.2705 13.6506 20.1519 14.0707 19.9519C14.4909 19.7519 14.8691 19.4853 15.2052 19.1519C15.5414 18.8186 15.8095 18.4403 16.0095 18.0172C16.2095 17.5942 16.3282 17.141 16.3655 16.6577C15.9352 16.8077 15.5338 16.9993 15.1615 17.2327C14.7892 17.466 14.4457 17.741 14.1312 18.0577C13.8167 18.3743 13.5404 18.7202 13.3022 19.0952C13.0641 19.4702 12.8685 19.8743 12.7155 20.3077ZM12 12.0769C13.0615 12.0769 13.9615 11.7077 14.7 10.9692C15.4385 10.2307 15.8077 9.33068 15.8077 8.26918V6.49218L14.0577 7.96718L12 5.24218L9.94223 7.96718L8.19223 6.49218V8.26918C8.19223 9.33068 8.56148 10.2307 9.29998 10.9692C10.0385 11.7077 10.9385 12.0769 12 12.0769ZM11.6155 21.3077C10.2265 21.3077 9.0459 20.8215 8.07374 19.8492C7.1014 18.877 6.61523 17.6965 6.61523 16.3077V15.4229C7.6704 15.5858 8.63323 15.9653 9.50373 16.5614C10.3742 17.1576 11.0397 17.8871 11.5 18.7499V13.0594C10.2847 12.9416 9.26282 12.4278 8.43448 11.5182C7.60632 10.6085 7.19223 9.52551 7.19223 8.26918V6.06143C7.19223 5.70509 7.3519 5.45859 7.67123 5.32193C7.9904 5.18543 8.27815 5.23317 8.53448 5.46518L9.80773 6.56518L11.3595 4.52292C11.5257 4.31526 11.7403 4.21143 12.0035 4.21143C12.2665 4.21143 12.4788 4.31526 12.6405 4.52292L14.1922 6.56518L15.4655 5.46518C15.7218 5.23317 16.0096 5.18543 16.3287 5.32193C16.6481 5.45859 16.8077 5.70509 16.8077 6.06143V8.26918C16.8077 9.52551 16.3937 10.6085 15.5655 11.5182C14.7372 12.4278 13.7153 12.9416 12.5 13.0594V18.7307C12.9603 17.8807 13.6225 17.1576 14.4865 16.5614C15.3507 15.9653 16.3039 15.5858 17.3462 15.4229V16.3077C17.3462 17.6965 16.862 18.877 15.8935 19.8492C14.925 20.8215 13.749 21.3077 12.3655 21.3077H11.6155Z" fill="#3C4043"/>
</svg>
