<svg width="24" height="25" viewBox="0 0 24 25" fill="none" xmlns="http://www.w3.org/2000/svg">
<path d="M11.9993 5.92307C11.8575 5.92307 11.7388 5.87516 11.6433 5.77932C11.5478 5.68349 11.5001 5.56474 11.5001 5.42307V3.03857C11.5001 2.89691 11.5481 2.77816 11.6441 2.68232C11.7401 2.58649 11.859 2.53857 12.0008 2.53857C12.1427 2.53857 12.2613 2.58649 12.3568 2.68232C12.4523 2.77816 12.5001 2.89691 12.5001 3.03857V5.42307C12.5001 5.56474 12.4521 5.68349 12.3561 5.77932C12.2601 5.87516 12.1412 5.92307 11.9993 5.92307ZM16.6423 7.85783C16.5488 7.76416 16.5052 7.65033 16.5116 7.51633C16.5181 7.38249 16.5681 7.26041 16.6616 7.15007L18.3116 5.45582C18.4124 5.34566 18.5322 5.29057 18.6708 5.29057C18.8095 5.29057 18.9354 5.34708 19.0486 5.46008C19.1521 5.56374 19.2038 5.68024 19.2038 5.80958C19.2038 5.93908 19.1507 6.05707 19.0443 6.16357L17.3501 7.85783C17.2437 7.96416 17.1258 8.01733 16.9963 8.01733C16.8668 8.01733 16.7488 7.96416 16.6423 7.85783ZM19.0771 13.0001C18.9354 13.0001 18.8167 12.9521 18.7208 12.8561C18.625 12.7601 18.5771 12.6412 18.5771 12.4993C18.5771 12.3575 18.625 12.2388 18.7208 12.1433C18.8167 12.0478 18.9354 12.0001 19.0771 12.0001H21.4616C21.6032 12.0001 21.722 12.0481 21.8178 12.1441C21.9137 12.2401 21.9616 12.359 21.9616 12.5008C21.9616 12.6427 21.9137 12.7613 21.8178 12.8568C21.722 12.9523 21.6032 13.0001 21.4616 13.0001H19.0771ZM11.9993 22.4616C11.8575 22.4616 11.7388 22.4137 11.6433 22.3178C11.5478 22.222 11.5001 22.1032 11.5001 21.9616V19.5963C11.5001 19.4547 11.5481 19.3359 11.6441 19.2401C11.7401 19.1442 11.859 19.0963 12.0008 19.0963C12.1427 19.0963 12.2613 19.1442 12.3568 19.2401C12.4523 19.3359 12.5001 19.4547 12.5001 19.5963V21.9616C12.5001 22.1032 12.4521 22.222 12.3561 22.3178C12.2601 22.4137 12.1412 22.4616 11.9993 22.4616ZM6.66932 7.85783L4.95582 6.18857C4.84566 6.08891 4.79057 5.96849 4.79057 5.82733C4.79057 5.68616 4.84566 5.56232 4.95582 5.45582C5.06232 5.36232 5.18457 5.31557 5.32257 5.31557C5.46057 5.31557 5.57424 5.36232 5.66357 5.45582L7.37707 7.16933C7.47057 7.25866 7.51732 7.37232 7.51732 7.51032C7.51732 7.64832 7.47182 7.76416 7.38082 7.85783C7.28149 7.95133 7.16566 7.99808 7.03332 7.99808C6.90082 7.99808 6.77949 7.95133 6.66932 7.85783ZM18.3308 19.5443L16.6616 17.8501C16.5681 17.7397 16.5181 17.6177 16.5116 17.4838C16.5052 17.3498 16.5476 17.236 16.6386 17.1423C16.7296 17.0488 16.8433 17.0021 16.9798 17.0021C17.1163 17.0021 17.2397 17.0552 17.3501 17.1616L19.0443 18.8308C19.1418 18.9245 19.1896 19.0392 19.1876 19.1751C19.1856 19.3109 19.1359 19.434 19.0386 19.5443C18.9321 19.6545 18.8098 19.7096 18.6718 19.7096C18.5338 19.7096 18.4202 19.6545 18.3308 19.5443ZM2.53857 13.0001C2.39691 13.0001 2.27816 12.9521 2.18232 12.8561C2.08649 12.7601 2.03857 12.6412 2.03857 12.4993C2.03857 12.3575 2.08649 12.2388 2.18232 12.1433C2.27816 12.0478 2.39691 12.0001 2.53857 12.0001H4.92307C5.06474 12.0001 5.18349 12.0481 5.27932 12.1441C5.37516 12.2401 5.42307 12.359 5.42307 12.5008C5.42307 12.6427 5.37516 12.7613 5.27932 12.8568C5.18349 12.9523 5.06474 13.0001 4.92307 13.0001H2.53857ZM4.97507 19.5443C4.88141 19.4378 4.83141 19.3167 4.82507 19.1808C4.81874 19.045 4.86232 18.9302 4.95582 18.8366L6.63082 17.1616C6.73732 17.0552 6.85432 17.0021 6.98182 17.0021C7.10932 17.0021 7.22824 17.0538 7.33857 17.1573C7.44874 17.2705 7.50382 17.3941 7.50382 17.5281C7.50382 17.6619 7.44874 17.784 7.33857 17.8943L5.68857 19.5443C5.57824 19.6545 5.45407 19.7096 5.31607 19.7096C5.17807 19.7096 5.06441 19.6545 4.97507 19.5443ZM12.0046 17.5001C10.6169 17.5001 9.43591 17.0144 8.46157 16.0431C7.48724 15.0717 7.00007 13.8922 7.00007 12.5046C7.00007 11.1169 7.48574 9.93591 8.45707 8.96158C9.42841 7.98724 10.6079 7.50008 11.9956 7.50008C13.3832 7.50008 14.5642 7.98574 15.5386 8.95708C16.5129 9.92841 17.0001 11.1079 17.0001 12.4956C17.0001 13.8832 16.5144 15.0642 15.5431 16.0386C14.5717 17.0129 13.3922 17.5001 12.0046 17.5001ZM12.0001 16.5001C13.1001 16.5001 14.0417 16.1084 14.8251 15.3251C15.6084 14.5417 16.0001 13.6001 16.0001 12.5001C16.0001 11.4001 15.6084 10.4584 14.8251 9.67508C14.0417 8.89174 13.1001 8.50008 12.0001 8.50008C10.9001 8.50008 9.95841 8.89174 9.17507 9.67508C8.39174 10.4584 8.00007 11.4001 8.00007 12.5001C8.00007 13.6001 8.39174 14.5417 9.17507 15.3251C9.95841 16.1084 10.9001 16.5001 12.0001 16.5001Z" fill="#3C4043"/>
</svg>
