<svg width="24" height="25" viewBox="0 0 24 25" fill="none" xmlns="http://www.w3.org/2000/svg">
<path d="M6.5 19.077C6.27817 19.077 6.08492 18.9946 5.92025 18.8297C5.75542 18.6651 5.673 18.4718 5.673 18.25C5.673 18.0282 5.75542 17.8349 5.92025 17.6702C6.08492 17.5054 6.27817 17.423 6.5 17.423C6.72183 17.423 6.91508 17.5054 7.07975 17.6702C7.24458 17.8349 7.327 18.0282 7.327 18.25C7.327 18.4718 7.24458 18.6651 7.07975 18.8297C6.91508 18.9946 6.72183 19.077 6.5 19.077ZM9.5 22.077C9.27817 22.077 9.08492 21.9946 8.92025 21.8297C8.75542 21.6651 8.673 21.4718 8.673 21.25C8.673 21.0282 8.75542 20.8349 8.92025 20.6702C9.08492 20.5054 9.27817 20.423 9.5 20.423C9.72183 20.423 9.91508 20.5054 10.0798 20.6702C10.2446 20.8349 10.327 21.0282 10.327 21.25C10.327 21.4718 10.2446 21.6651 10.0798 21.8297C9.91508 21.9946 9.72183 22.077 9.5 22.077ZM12.5 19.077C12.2782 19.077 12.0849 18.9946 11.9202 18.8297C11.7554 18.6651 11.673 18.4718 11.673 18.25C11.673 18.0282 11.7554 17.8349 11.9202 17.6702C12.0849 17.5054 12.2782 17.423 12.5 17.423C12.7218 17.423 12.9151 17.5054 13.0798 17.6702C13.2446 17.8349 13.327 18.0282 13.327 18.25C13.327 18.4718 13.2446 18.6651 13.0798 18.8297C12.9151 18.9946 12.7218 19.077 12.5 19.077ZM18.5 19.077C18.2782 19.077 18.0849 18.9946 17.9202 18.8297C17.7554 18.6651 17.673 18.4718 17.673 18.25C17.673 18.0282 17.7554 17.8349 17.9202 17.6702C18.0849 17.5054 18.2782 17.423 18.5 17.423C18.7218 17.423 18.9151 17.5054 19.0798 17.6702C19.2446 17.8349 19.327 18.0282 19.327 18.25C19.327 18.4718 19.2446 18.6651 19.0798 18.8297C18.9151 18.9946 18.7218 19.077 18.5 19.077ZM15.5 22.077C15.2782 22.077 15.0849 21.9946 14.9202 21.8297C14.7554 21.6651 14.673 21.4718 14.673 21.25C14.673 21.0282 14.7554 20.8349 14.9202 20.6702C15.0849 20.5054 15.2782 20.423 15.5 20.423C15.7218 20.423 15.9151 20.5054 16.0798 20.6702C16.2446 20.8349 16.327 21.0282 16.327 21.25C16.327 21.4718 16.2446 21.6651 16.0798 21.8297C15.9151 21.9946 15.7218 22.077 15.5 22.077ZM7.5 15C6.1115 15 4.93108 14.5137 3.95875 13.5412C2.98625 12.5689 2.5 11.3885 2.5 10C2.5 8.70633 2.93592 7.58775 3.80775 6.64425C4.67958 5.70058 5.77125 5.15633 7.08275 5.0115C7.57875 4.0735 8.25692 3.33708 9.11725 2.80225C9.97758 2.26742 10.936 2 11.9925 2C13.4333 2 14.6695 2.476 15.701 3.428C16.7323 4.37983 17.3327 5.566 17.502 6.9865C18.7288 7.06083 19.7019 7.48775 20.4212 8.26725C21.1404 9.04675 21.5 9.95958 21.5 11.0057C21.5 12.1109 21.1111 13.0529 20.3333 13.8317C19.5556 14.6106 18.6112 15 17.5 15H7.5ZM7.5 14H17.5C18.3282 14 19.0352 13.7071 19.6213 13.1212C20.2071 12.5352 20.5 11.8282 20.5 11C20.5 10.1718 20.2071 9.46475 19.6213 8.87875C19.0352 8.29292 18.3282 8 17.5 8H16.5V7.5C16.5 6.2625 16.0591 5.20317 15.1773 4.322C14.2954 3.44067 13.2353 3 11.997 3C11.0965 3 10.2762 3.24442 9.536 3.73325C8.79567 4.22225 8.23817 4.88042 7.8635 5.70775L7.74525 6H7.45C6.36233 6.03817 5.43208 6.44292 4.65925 7.21425C3.88642 7.98575 3.5 8.91433 3.5 10C3.5 11.1048 3.8905 12.0477 4.6715 12.8285C5.45233 13.6095 6.39517 14 7.5 14Z" fill="#3C4043"/>
</svg>
